<svg width="30" height="40" viewBox="0 0 30 40" fill="none" xmlns="http://www.w3.org/2000/svg">
<path d="M7.58758 28.3308C6.90868 27.6519 7.26258 27.8433 5.6251 27.405C4.88214 27.2058 4.22902 26.823 3.6384 26.3644L0.0939034 35.055C-0.249062 35.8964 0.391557 36.8104 1.29936 36.776L5.41572 36.619L8.24695 39.6096C8.87194 40.269 9.9688 40.0635 10.3118 39.2221L14.3781 29.2519C13.5313 29.7238 12.5914 30.0003 11.6196 30.0003C10.0961 30.0003 8.66491 29.4074 7.58758 28.3308ZM29.9061 35.055L26.3616 26.3644C25.771 26.8238 25.1179 27.2058 24.3749 27.405C22.7288 27.8457 23.0898 27.6535 22.4124 28.3308C21.3351 29.4074 19.9031 30.0003 18.3797 30.0003C17.4078 30.0003 16.468 29.723 15.6211 29.2519L19.6875 39.2221C20.0304 40.0635 21.1281 40.269 21.7523 39.6096L24.5843 36.619L28.7006 36.776C29.6084 36.8104 30.2491 35.8956 29.9061 35.055ZM20.5468 26.5629C21.7406 25.348 21.8773 25.4527 23.5773 24.9894C24.6624 24.6933 25.5108 23.8301 25.8015 22.7254C26.3858 20.5067 26.2343 20.7746 27.8288 19.1512C28.6233 18.3426 28.9335 17.1637 28.6428 16.0591C28.0592 13.8419 28.0585 14.1513 28.6428 11.9318C28.9335 10.8271 28.6233 9.64819 27.8288 8.8396C26.2343 7.21618 26.3858 7.48337 25.8015 5.26542C25.5108 4.16074 24.6624 3.29747 23.5773 3.00138C21.3992 2.40686 21.6617 2.56232 20.0656 0.93812C19.2711 0.129535 18.1125 -0.186868 17.0273 0.109223C14.85 0.702967 15.1539 0.703748 12.9727 0.109223C11.8875 -0.186868 10.729 0.128754 9.93443 0.93812C8.33991 2.56154 8.60241 2.40686 6.42353 3.00138C5.33838 3.29747 4.48995 4.16074 4.19933 5.26542C3.61574 7.48337 3.76652 7.21618 2.17201 8.8396C1.37748 9.64819 1.06655 10.8271 1.35795 11.9318C1.94154 14.1474 1.94232 13.838 1.35795 16.0583C1.06733 17.163 1.37748 18.3418 2.17201 19.1512C3.76652 20.7746 3.61496 20.5067 4.19933 22.7254C4.48995 23.8301 5.33838 24.6933 6.42353 24.9894C8.17195 25.466 8.30241 25.391 9.45318 26.5629C10.4868 27.6152 12.0969 27.8035 13.3391 27.0175C13.8358 26.7022 14.412 26.5347 15.0004 26.5347C15.5888 26.5347 16.165 26.7022 16.6617 27.0175C17.9031 27.8035 19.5132 27.6152 20.5468 26.5629ZM7.62976 13.7474C7.62976 9.60444 10.9297 6.24588 15 6.24588C19.0703 6.24588 22.3702 9.60444 22.3702 13.7474C22.3702 17.8903 19.0703 21.2489 15 21.2489C10.9297 21.2489 7.62976 17.8903 7.62976 13.7474Z" fill="#0A6480"/>
</svg>
