<svg width="40" height="32" viewBox="0 0 40 32" fill="none" xmlns="http://www.w3.org/2000/svg">
<path d="M34.7927 0L31.9877 2.55537C37.4092 7.49444 37.4092 15.8437 31.9877 20.7827L34.7927 23.3381C41.7358 17.0129 41.7358 6.32518 34.7927 0ZM26.0365 7.97696C27.1593 8.99983 27.7802 10.3119 27.7802 11.6691C27.7802 13.0263 27.1593 14.3383 26.0365 15.3612L28.8415 17.9165C30.7141 16.2123 31.7477 13.9913 31.7477 11.6691C31.7477 9.34681 30.7141 7.12577 28.8415 5.42158L26.0365 7.97696ZM8.0123 2.55537L5.2073 0C-1.73577 6.32518 -1.73577 17.0129 5.2073 23.3381L8.0123 20.7827C2.59075 15.8437 2.59075 7.49444 8.0123 2.55537Z" fill="#175F75"/>
<path d="M10.1666 5.42151C8.29396 7.12569 7.26044 9.34674 7.26044 11.669C7.26044 13.9912 8.29396 16.2123 10.1666 17.9165L12.9716 15.3611C11.8488 14.3382 11.2279 13.0262 11.2279 11.669C11.2279 10.3118 11.8488 8.99975 12.9716 7.97688L10.1666 5.42151ZM23.4715 11.2172C23.4715 9.22204 21.6941 7.60279 19.504 7.60279C17.314 7.60279 15.5366 9.22204 15.5366 11.2172C15.5346 12.4732 16.2408 13.581 17.312 14.228L15.5405 31.9999H23.4675L21.6961 14.2262C22.7673 13.5792 23.4715 12.4732 23.4715 11.2172Z" fill="#175F75"/>
</svg>
