<svg width="40" height="33" viewBox="0 0 40 33" fill="none" xmlns="http://www.w3.org/2000/svg">
<path d="M4.7619 21.9044C8.97476 23.1453 16.65 23.6241 19.246 26.8717V8.57105C16.6501 5.32343 8.97476 4.84467 4.7619 3.60371V21.9044ZM4.7619 0.293143V0.0266665C8.97476 1.26762 16.65 1.74638 19.246 4.994L20 5.21105L20.754 4.96733C23.3499 1.71971 31.0252 1.24095 35.2381 0V0.266477C36.4082 0.618858 37.1429 0.925333 37.1429 0.925333V3.78248L40 2.69124V25.6872C40 25.6872 23.0159 26.8777 20 32.1555L19.9999 32.1822C16.9841 26.9044 0 25.7139 0 25.7139V2.7179L2.85714 3.80914V0.951999C2.85714 0.951999 3.59181 0.645524 4.7619 0.293143ZM6.19048 19.5295V16.5566C9.78 17.3743 14.7242 17.9226 17.619 19.7615V22.7345C14.7242 20.8954 9.78 20.3472 6.19048 19.5295ZM6.19048 14.4011V11.4282C9.78 12.2459 14.7242 12.7941 17.619 14.6331V17.6061C14.7242 15.767 9.78 15.2189 6.19048 14.4011ZM6.19048 9.17562V6.20267C9.78 7.02038 14.7242 7.56857 17.619 9.40762V12.3806C14.7242 10.5415 9.78 9.99333 6.19048 9.17562ZM35.2381 21.8777V3.57705C31.0252 4.818 23.3499 5.29676 20.754 8.54438V26.845C23.35 23.5974 31.0252 23.1187 35.2381 21.8777ZM33.8095 19.5029C30.22 20.3206 25.2757 20.8688 22.381 22.7078V19.7349C25.2757 17.8958 30.22 17.3476 33.8095 16.5299V19.5029ZM33.8095 14.3745C30.22 15.1922 25.2757 15.7404 22.381 17.5794V14.6065C25.2758 12.7674 30.22 12.2192 33.8095 11.4015V14.3745ZM33.8095 9.14895C30.22 9.96667 25.2757 10.5149 22.381 12.3539V9.38095C25.2757 7.5419 30.22 6.99371 33.8095 6.176V9.14895Z" fill="#175F75"/>
</svg>
