<svg width="46" height="32" viewBox="0 0 46 32" fill="none" xmlns="http://www.w3.org/2000/svg">
<path d="M23.1049 0.612617C10.5904 0.612617 0.445702 9.44788 0.445702 20.347C0.445702 23.965 1.56686 27.3541 3.51885 30.269C3.96023 30.9282 4.8013 31.3106 5.67777 31.3106H40.532C41.4084 31.3106 42.2495 30.9282 42.6909 30.269C44.6429 27.3541 45.764 23.965 45.764 20.347C45.764 9.44788 35.6193 0.612617 23.1049 0.612617ZM23.1049 4.99804C24.2622 4.99804 25.1961 5.69217 25.4904 6.61859C25.403 6.77345 25.2827 6.90844 25.2189 7.07564L24.4935 8.97165C24.0899 9.21079 23.6304 9.38347 23.1057 9.38347C21.7154 9.38347 20.588 8.40154 20.588 7.19075C20.588 5.97997 21.7146 4.99804 23.1049 4.99804ZM7.99876 24.7325C6.60852 24.7325 5.48107 23.7505 5.48107 22.5397C5.48107 21.3289 6.60852 20.347 7.99876 20.347C9.38899 20.347 10.5164 21.3289 10.5164 22.5397C10.5164 23.7505 9.38899 24.7325 7.99876 24.7325ZM11.7753 13.7689C10.3851 13.7689 9.2576 12.787 9.2576 11.5762C9.2576 10.3654 10.3851 9.38347 11.7753 9.38347C13.1655 9.38347 14.293 10.3654 14.293 11.5762C14.293 12.787 13.1655 13.7689 11.7753 13.7689ZM31.1906 8.80719L26.3653 21.4153C27.4424 22.2197 28.1402 23.399 28.1402 24.7325C28.1402 25.5355 27.8743 26.2776 27.4416 26.9252H18.7682C18.3354 26.2776 18.0695 25.5355 18.0695 24.7325C18.0695 22.4068 20.1545 20.5231 22.7823 20.3751L27.6084 7.76634C27.9365 6.9057 29.0033 6.43358 29.997 6.72686C30.986 7.01397 31.5194 7.94587 31.1906 8.80719ZM32.344 12.7267L33.5651 9.53696C33.8381 9.44856 34.126 9.38415 34.4345 9.38415C35.8247 9.38415 36.9521 10.3661 36.9521 11.5769C36.9521 12.7877 35.8247 13.7696 34.4345 13.7696C33.5391 13.7689 32.7909 13.3393 32.344 12.7267ZM38.211 24.7325C36.8208 24.7325 35.6933 23.7505 35.6933 22.5397C35.6933 21.3289 36.8208 20.347 38.211 20.347C39.6012 20.347 40.7287 21.3289 40.7287 22.5397C40.7287 23.7505 39.6012 24.7325 38.211 24.7325Z" fill="#0A6480"/>
</svg>