<svg width="43" height="40" viewBox="0 0 43 40" fill="none" xmlns="http://www.w3.org/2000/svg">
<path d="M35.7024 23.9101C35.4577 23.8904 35.2103 23.8803 34.9604 23.8803C34.7106 23.8803 34.4631 23.8904 34.2185 23.9101V10.8126H1.57317V32.5921H26.0572C26.0572 33.0868 26.0993 33.5719 26.1802 34.0441H1.57317C0.75365 34.0441 0.0892944 33.394 0.0892944 32.5921V10.0866V6.45672C0.0892944 5.65483 0.75365 5.00476 1.57317 5.00476H7.50868C7.50868 6.60856 8.83739 7.90869 10.4764 7.90869C12.1155 7.90869 13.4442 6.60856 13.4442 5.00476H22.3475C22.3475 6.60856 23.6762 7.90869 25.3152 7.90869C26.9543 7.90869 28.283 6.60856 28.283 5.00476H34.2185C35.038 5.00476 35.7024 5.65483 35.7024 6.45672V10.0866V23.9101ZM10.4764 0.648865C11.296 0.648865 11.9603 1.29893 11.9603 2.10083V5.00476C11.9603 5.80666 11.296 6.45672 10.4764 6.45672C9.65692 6.45672 8.99256 5.80666 8.99256 5.00476V2.10083C8.99256 1.29893 9.65692 0.648865 10.4764 0.648865ZM25.3152 0.648865C26.1347 0.648865 26.7991 1.29893 26.7991 2.10083V5.00476C26.7991 5.80666 26.1347 6.45672 25.3152 6.45672C24.4957 6.45672 23.8313 5.80666 23.8313 5.00476V2.10083C23.8313 1.29893 24.4957 0.648865 25.3152 0.648865ZM34.9604 39.8519C30.8628 39.8519 27.541 36.6016 27.541 32.5921C27.541 28.5826 30.8628 25.3323 34.9604 25.3323C39.058 25.3323 42.3798 28.5826 42.3798 32.5921C42.3798 36.6016 39.058 39.8519 34.9604 39.8519ZM35.7024 29.7089C35.7024 29.2965 35.3702 28.9622 34.9604 28.9622C34.5507 28.9622 34.2185 29.2965 34.2185 29.7089V33.4375L36.6506 35.9919C36.9341 36.2897 37.4037 36.2998 37.6996 36.0144C37.9954 35.7291 38.0054 35.2564 37.7219 34.9586L35.7024 32.8375V29.7089ZM25.3152 14.4425H28.283C29.1025 14.4425 29.7669 15.0926 29.7669 15.8945C29.7669 16.6964 29.1025 17.3465 28.283 17.3465H25.3152C24.4957 17.3465 23.8313 16.6964 23.8313 15.8945C23.8313 15.0926 24.4957 14.4425 25.3152 14.4425ZM16.412 14.4425H19.3797C20.1992 14.4425 20.8636 15.0926 20.8636 15.8945C20.8636 16.6964 20.1992 17.3465 19.3797 17.3465H16.412C15.5924 17.3465 14.9281 16.6964 14.9281 15.8945C14.9281 15.0926 15.5924 14.4425 16.412 14.4425ZM7.50868 20.2504H10.4764C11.296 20.2504 11.9603 20.9005 11.9603 21.7024C11.9603 22.5043 11.296 23.1543 10.4764 23.1543H7.50868C6.68916 23.1543 6.02481 22.5043 6.02481 21.7024C6.02481 20.9005 6.68916 20.2504 7.50868 20.2504ZM25.3152 20.2504H28.283C29.1025 20.2504 29.7669 20.9005 29.7669 21.7024C29.7669 22.5043 29.1025 23.1543 28.283 23.1543H25.3152C24.4957 23.1543 23.8313 22.5043 23.8313 21.7024C23.8313 20.9005 24.4957 20.2504 25.3152 20.2504ZM16.412 20.2504H19.3797C20.1992 20.2504 20.8636 20.9005 20.8636 21.7024C20.8636 22.5043 20.1992 23.1543 19.3797 23.1543H16.412C15.5924 23.1543 14.9281 22.5043 14.9281 21.7024C14.9281 20.9005 15.5924 20.2504 16.412 20.2504ZM7.50868 26.0582H10.4764C11.296 26.0582 11.9603 26.7083 11.9603 27.5102C11.9603 28.3121 11.296 28.9622 10.4764 28.9622H7.50868C6.68916 28.9622 6.02481 28.3121 6.02481 27.5102C6.02481 26.7083 6.68916 26.0582 7.50868 26.0582ZM16.412 26.0582H19.3797C20.1992 26.0582 20.8636 26.7083 20.8636 27.5102C20.8636 28.3121 20.1992 28.9622 19.3797 28.9622H16.412C15.5924 28.9622 14.9281 28.3121 14.9281 27.5102C14.9281 26.7083 15.5924 26.0582 16.412 26.0582Z" fill="#0A6480"/>
</svg>