<svg width="37" height="28" viewBox="0 0 37 28" fill="none" xmlns="http://www.w3.org/2000/svg">
<path d="M36.4879 15.2386L24.154 27.4866C23.0527 28.5801 21.1439 27.8146 21.1439 26.2472V19.2484H11.1593C10.1828 19.2484 9.39729 18.4683 9.39729 17.4986V10.4998C9.39729 9.53018 10.1828 8.7501 11.1593 8.7501H21.1439V1.75126C21.1439 0.191102 23.0454 -0.581686 24.154 0.511882L36.4879 12.7598C37.1707 13.4452 37.1707 14.5533 36.4879 15.2386ZM14.0959 27.122V24.2059C14.0959 23.7247 13.6995 23.331 13.2149 23.331H7.04797C5.7485 23.331 4.69865 22.2885 4.69865 20.9981V7.00039C4.69865 5.70998 5.7485 4.66744 7.04797 4.66744H13.2149C13.6995 4.66744 14.0959 4.27376 14.0959 3.79259V0.876405C14.0959 0.395235 13.6995 0.00155058 13.2149 0.00155058H7.04797C3.1569 0.00155058 0 3.13645 0 7.00039V20.9981C0 24.862 3.1569 27.9969 7.04797 27.9969H13.2149C13.6995 27.9969 14.0959 27.6032 14.0959 27.122Z" fill="#0A6480"/>
</svg>