<svg width="44" height="29" viewBox="0 0 44 29" fill="none" xmlns="http://www.w3.org/2000/svg">
<path d="M41.2562 0.88446H8.50413C6.95153 0.88446 5.62768 1.85878 5.13602 3.2152H1.95371C0.967057 3.2152 0.167236 3.99782 0.167236 4.96326V24.7746C0.167236 27.0272 2.03351 28.8533 4.33568 28.8533H41.2562C42.2429 28.8533 43.0427 28.0707 43.0427 27.1053V2.63252C43.0427 1.66708 42.2429 0.88446 41.2562 0.88446ZM3.74019 24.7746V6.71131H4.93117V24.7746C4.93117 25.0958 4.66402 25.3572 4.33568 25.3572C4.00734 25.3572 3.74019 25.0958 3.74019 24.7746ZM39.4697 25.3572H8.4611C8.48894 25.1668 8.50413 24.9724 8.50413 24.7746V4.38057H39.4697V25.3572ZM12.9703 16.617H23.0937C23.587 16.617 23.9869 16.2256 23.9869 15.7429V8.75071C23.9869 8.26803 23.587 7.87668 23.0937 7.87668H12.9703C12.477 7.87668 12.0771 8.26803 12.0771 8.75071V15.7429C12.0771 16.2256 12.477 16.617 12.9703 16.617ZM15.0545 10.7901H21.0095V13.7035H15.0545V10.7901ZM12.0771 20.9871V19.239C12.0771 18.7564 12.477 18.365 12.9703 18.365H23.0937C23.587 18.365 23.9869 18.7564 23.9869 19.239V20.9871C23.9869 21.4698 23.587 21.8611 23.0937 21.8611H12.9703C12.477 21.8611 12.0771 21.4698 12.0771 20.9871ZM26.3689 20.9871V19.239C26.3689 18.7564 26.7688 18.365 27.2621 18.365H35.0035C35.4968 18.365 35.8968 18.7564 35.8968 19.239V20.9871C35.8968 21.4698 35.4968 21.8611 35.0035 21.8611H27.2621C26.7688 21.8611 26.3689 21.4698 26.3689 20.9871ZM26.3689 10.4988V8.75071C26.3689 8.26803 26.7688 7.87668 27.2621 7.87668H35.0035C35.4968 7.87668 35.8968 8.26803 35.8968 8.75071V10.4988C35.8968 10.9814 35.4968 11.3728 35.0035 11.3728H27.2621C26.7688 11.3728 26.3689 10.9814 26.3689 10.4988ZM26.3689 15.7429V13.9949C26.3689 13.5122 26.7688 13.1208 27.2621 13.1208H35.0035C35.4968 13.1208 35.8968 13.5122 35.8968 13.9949V15.7429C35.8968 16.2256 35.4968 16.617 35.0035 16.617H27.2621C26.7688 16.617 26.3689 16.2256 26.3689 15.7429Z" fill="#0A6480"/>
</svg>
