<svg width="43" height="41" viewBox="0 0 43 41" fill="none" xmlns="http://www.w3.org/2000/svg">
<path d="M42.5816 5.65343C42.5808 6.932 42.0616 8.15802 41.138 9.06239C40.2143 9.96675 38.9616 10.4756 37.655 10.4772H36.1095V35.5701C36.1078 36.8481 35.5883 38.0734 34.6647 38.9771C33.7411 39.8808 32.4889 40.3892 31.1828 40.3908H5.09545C4.44827 40.3908 3.80742 40.2661 3.20951 40.0237C2.61159 39.7814 2.0683 39.4262 1.61068 38.9784C1.15305 38.5306 0.79004 37.999 0.542374 37.414C0.294708 36.8289 0.167236 36.2018 0.167236 35.5686C0.167236 34.9353 0.294708 34.3082 0.542374 33.7232C0.79004 33.1381 1.15305 32.6065 1.61068 32.1587C2.0683 31.711 2.61159 31.3558 3.20951 31.1134C3.80742 30.8711 4.44827 30.7463 5.09545 30.7463H6.6379V5.65343C6.6379 4.37383 7.15719 3.14659 8.08161 2.24149C9.00603 1.33639 10.2599 0.827514 11.5676 0.826721H37.6519C38.9591 0.827513 40.2125 1.33598 41.1369 2.24043C42.0612 3.14488 42.5808 4.37135 42.5816 5.65044V5.65343ZM5.09545 37.0793H26.4974C26.1669 36.0991 26.1669 35.041 26.4974 34.0608H5.10156C4.69248 34.0608 4.30015 34.2198 4.01088 34.5028C3.72162 34.7859 3.55911 35.1698 3.55911 35.5701C3.55911 35.9703 3.72162 36.3542 4.01088 36.6373C4.30015 36.9203 4.69248 37.0793 5.10156 37.0793H5.09545ZM32.7222 5.65343C32.7215 5.14085 32.8039 4.63142 32.9665 4.14415H11.5707C11.2273 4.14355 10.8937 4.25621 10.6238 4.46394L10.6177 4.46693C10.4332 4.60736 10.2841 4.78737 10.1819 4.99308C10.0797 5.19879 10.0272 5.42471 10.0282 5.65343V30.7463H29.3837C29.8056 30.7416 30.2166 30.8771 30.5495 31.1306C30.8824 31.3842 31.1175 31.7408 31.2164 32.1421C31.3324 32.5261 31.3207 32.9363 31.1829 33.3135C31.0451 33.6906 30.7883 34.0151 30.4497 34.2401C30.2104 34.3673 30.0098 34.5541 29.8682 34.7817C29.7267 35.0094 29.6492 35.2696 29.6437 35.536C29.6382 35.8024 29.7049 36.0654 29.8369 36.2985C29.969 36.5315 30.1618 36.7261 30.3956 36.8626C30.6295 36.9991 30.8961 37.0726 31.1684 37.0756C31.4407 37.0786 31.7089 37.011 31.9459 36.8797C32.1828 36.7484 32.3801 36.5581 32.5175 36.3281C32.6549 36.098 32.7276 35.8365 32.7283 35.5701L32.7222 5.65343ZM30.0954 9.95114H12.5023V13.2596H30.0954V9.95114ZM30.0954 16.7055H12.5023V20.014H30.0954V16.7055ZM30.0954 23.46H12.5023V26.7714H30.0954V23.46ZM39.1944 5.65343C39.1936 5.25339 39.0308 4.86995 38.7417 4.58708C38.4526 4.30421 38.0607 4.14494 37.6519 4.14415C37.3084 4.14261 36.9745 4.25538 36.7051 4.46394H36.699C36.5136 4.60453 36.3638 4.78491 36.2611 4.99116C36.1584 5.1974 36.1054 5.42399 36.1064 5.65343V7.16271H37.6519C38.0607 7.16192 38.4526 7.00265 38.7417 6.71978C39.0308 6.43691 39.1936 6.05347 39.1944 5.65343Z" fill="#0A6480"/>
</svg>