<svg width="38" height="40" viewBox="0 0 38 40" fill="none" xmlns="http://www.w3.org/2000/svg">
<path fill-rule="evenodd" clip-rule="evenodd" d="M38 0V40H2.53332V30.8497H1.26667C0.567476 30.8497 0 30.3226 0 29.6732C0 29.0238 0.567476 28.4967 1.26667 28.4967H2.53332V21.4379H1.26667C0.567476 21.4379 0 20.9108 0 20.2614C0 19.612 0.567476 19.085 1.26667 19.085H2.53332V12.0261H1.26667C0.567476 12.0261 0 11.4991 0 10.8497C0 10.2003 0.567476 9.67319 1.26667 9.67319H2.53332V0H38ZM35.4666 2.35294H5.06667V9.67321H6.33334C7.03254 9.67321 7.59999 10.2003 7.59999 10.8497C7.59999 11.4991 7.03254 12.0261 6.33334 12.0261H5.06667V19.085H6.33334C7.03254 19.085 7.59999 19.612 7.59999 20.2614C7.59999 20.9109 7.03254 21.4379 6.33334 21.4379H5.06667V28.4967H6.33334C7.03254 28.4967 7.59999 29.0238 7.59999 29.6732C7.59999 30.3226 7.03254 30.8497 6.33334 30.8497H5.06667V37.6471H35.4667V2.35292L35.4666 2.35294ZM11.975 8.85835H28.7537V11.2113H11.975L11.975 8.85835ZM11.975 13.334H26.3068V15.6869H11.975L11.975 13.334ZM11.975 24.4766H28.7537V26.8295H11.975L11.975 24.4766ZM11.975 28.9522H26.3068V31.3051H11.975L11.975 28.9522Z" fill="#0A6480"/>
</svg>
