<svg width="48" height="48" viewBox="0 0 48 48" fill="none" xmlns="http://www.w3.org/2000/svg">
<g id="&#240;&#159;&#166;&#134; icon &#34;Search&#34;">
<path id="Vector" d="M46.7821 40.8507L37.6258 31.6944C37.2126 31.2811 36.6523 31.0516 36.0646 31.0516H34.5676C37.1023 27.8097 38.6085 23.7321 38.6085 19.2963C38.6085 8.74409 30.0584 0.19397 19.5062 0.19397C8.95399 0.19397 0.40387 8.74409 0.40387 19.2963C0.40387 29.8485 8.95399 38.3986 19.5062 38.3986C23.942 38.3986 28.0196 36.8924 31.2614 34.3577V35.8547C31.2614 36.4424 31.491 37.0027 31.9043 37.4159L41.0606 46.5722C41.9238 47.4355 43.3198 47.4355 44.1739 46.5722L46.7729 43.9732C47.6362 43.1099 47.6362 41.7139 46.7821 40.8507ZM19.5062 31.0516C13.0132 31.0516 7.75091 25.7984 7.75091 19.2963C7.75091 12.8033 13.004 7.54101 19.5062 7.54101C25.9991 7.54101 31.2614 12.7941 31.2614 19.2963C31.2614 25.7892 26.0083 31.0516 19.5062 31.0516Z" fill="#0A6480"/>
</g>
</svg>
