<svg width="40" height="29" viewBox="0 0 40 29" fill="none" xmlns="http://www.w3.org/2000/svg">
<path id="Vector" d="M36.6778 0H2.82137C2.07309 0 1.35547 0.29725 0.826359 0.826359C0.29725 1.35547 0 2.07309 0 2.82137V25.3923C0 26.1406 0.29725 26.8582 0.826359 27.3873C1.35547 27.9164 2.07309 28.2137 2.82137 28.2137H36.6778C37.426 28.2137 38.1437 27.9164 38.6728 27.3873C39.2019 26.8582 39.4991 26.1406 39.4991 25.3923V2.82137C39.4991 2.07309 39.2019 1.35547 38.6728 0.826359C38.1437 0.29725 37.426 0 36.6778 0ZM33.5743 2.82137L19.7496 12.3858L5.92487 2.82137H33.5743ZM2.82137 25.3923V4.10509L18.9455 15.2636C19.1816 15.4274 19.4622 15.5152 19.7496 15.5152C20.037 15.5152 20.3175 15.4274 20.5537 15.2636L36.6778 4.10509V25.3923H2.82137Z" fill="#0A6480"/>
</svg>
