<svg width="43" height="42" viewBox="0 0 43 42" fill="none" xmlns="http://www.w3.org/2000/svg">
<path d="M34.629 5.45888H29.3272V2.86499H26.6763V5.45888H16.0727V2.86499H13.4218V5.45888H8.11996C7.41716 5.45974 6.74341 5.7333 6.24645 6.21956C5.7495 6.70582 5.46993 7.36509 5.46906 8.05277V33.9917C5.46993 34.6793 5.7495 35.3386 6.24645 35.8249C6.74341 36.3111 7.41716 36.5847 8.11996 36.5856H34.629C35.3318 36.5847 36.0055 36.3111 36.5025 35.8249C36.9994 35.3386 37.279 34.6793 37.2799 33.9917V8.05277C37.279 7.36509 36.9994 6.70582 36.5025 6.21956C36.0055 5.7333 35.3318 5.45974 34.629 5.45888ZM8.11996 8.05277H13.4218V10.6467H16.0727V8.05277H26.6763V10.6467H29.3272V8.05277H34.629V13.2405H8.11996V8.05277ZM8.11996 15.8344H14.7472V23.6161H8.11996V15.8344ZM25.3508 33.9917H17.3981V26.21H25.3508V33.9917ZM25.3508 23.6161H17.3981V15.8344H25.3508V23.6161ZM28.0017 33.9917V26.21H34.629L34.6306 33.9917H28.0017Z" fill="#0A6480"/>
</svg>